<svg width="619" height="188" viewBox="0 0 619 188" fill="none" xmlns="http://www.w3.org/2000/svg">
<mask id="path-1-outside-1_1_269" maskUnits="userSpaceOnUse" x="8" y="-2" width="603" height="158" fill="black">
<rect fill="white" x="8" y="-2" width="603" height="158"/>
<path d="M45.1905 154H9.83986L9.83986 32.4595H46.6482V97.3297L88.9232 32.4595H126.825V154H90.0165V85.121L45.1905 154ZM183.313 154H146.505V32.4595L238.708 32.4595V64.5301H183.313V154ZM291.15 154H254.342V32.4595H319.212C332.939 32.4595 343.629 36.4683 351.282 44.486C359.057 52.3822 362.945 62.2828 362.945 74.1878C362.945 85.9713 359.057 95.8719 351.282 103.89C343.629 111.786 332.939 115.734 319.212 115.734H291.15V154ZM314.474 83.6632C317.754 83.6632 320.427 82.8736 322.492 81.2944C324.557 79.5936 325.59 77.2248 325.59 74.1878C325.59 71.0293 324.557 68.6605 322.492 67.0812C320.427 65.3805 317.754 64.5301 314.474 64.5301H291.15V83.6632H314.474ZM484.995 154H443.266L438.893 139.787H395.16L390.787 154H349.059L393.885 32.4595H440.169L484.995 154ZM429.053 107.716L417.027 68.539L405 107.716H429.053ZM526.898 154L491.548 154V32.4595H528.356V97.3297L570.631 32.4595H608.533V154H571.724V85.121L526.898 154ZM581.928 12.0509C574.032 22.7411 563.403 28.0862 550.04 28.0862C536.799 28.0862 526.109 22.7411 517.969 12.0509L531.818 0.753258C536.434 7.19168 542.508 10.4109 550.04 10.4109C557.693 10.4109 563.767 7.19168 568.262 0.753258L581.928 12.0509Z"/>
</mask>
<path d="M45.1905 154V155.5H46.004L46.4477 154.818L45.1905 154ZM9.83986 154H8.33986V155.5H9.83986V154ZM9.83986 32.4595V30.9595H8.33986V32.4595H9.83986ZM46.6482 32.4595H48.1482V30.9595H46.6482V32.4595ZM46.6482 97.3297H45.1482V102.379L47.9049 98.1487L46.6482 97.3297ZM88.9232 32.4595V30.9595H88.1103L87.6665 31.6405L88.9232 32.4595ZM126.825 32.4595H128.325V30.9595H126.825V32.4595ZM126.825 154V155.5H128.325V154H126.825ZM90.0165 154H88.5165V155.5H90.0165V154ZM90.0165 85.121H91.5165V80.0661L88.7593 84.3028L90.0165 85.121ZM45.1905 152.5H9.83986V155.5H45.1905V152.5ZM11.3399 154L11.3399 32.4595H8.33986L8.33986 154H11.3399ZM9.83986 33.9595H46.6482V30.9595H9.83986V33.9595ZM45.1482 32.4595V97.3297H48.1482V32.4595H45.1482ZM47.9049 98.1487L90.1799 33.2784L87.6665 31.6405L45.3915 96.5107L47.9049 98.1487ZM88.9232 33.9595H126.825V30.9595H88.9232V33.9595ZM125.325 32.4595V154H128.325V32.4595H125.325ZM126.825 152.5H90.0165V155.5H126.825V152.5ZM91.5165 154V85.121H88.5165V154H91.5165ZM88.7593 84.3028L43.9333 153.182L46.4477 154.818L91.2737 85.9391L88.7593 84.3028ZM183.313 154V155.5H184.813V154H183.313ZM146.505 154H145.005V155.5H146.505V154ZM146.505 32.4595V30.9595H145.005V32.4595H146.505ZM238.708 32.4595H240.208V30.9595H238.708V32.4595ZM238.708 64.5301V66.0301H240.208V64.5301H238.708ZM183.313 64.5301V63.0301H181.813V64.5301H183.313ZM183.313 152.5H146.505V155.5H183.313V152.5ZM148.005 154V32.4595H145.005V154H148.005ZM146.505 33.9595L238.708 33.9595V30.9595L146.505 30.9595V33.9595ZM237.208 32.4595V64.5301H240.208V32.4595H237.208ZM238.708 63.0301H183.313V66.0301H238.708V63.0301ZM181.813 64.5301V154H184.813V64.5301H181.813ZM291.15 154V155.5H292.65V154H291.15ZM254.342 154H252.842V155.5H254.342V154ZM254.342 32.4595V30.9595H252.842V32.4595H254.342ZM351.283 44.486L350.197 45.5217L350.206 45.5301L350.214 45.5384L351.283 44.486ZM351.283 103.89L350.206 102.845L350.205 102.846L351.283 103.89ZM291.15 115.734V114.234H289.65V115.734H291.15ZM322.492 81.2943L323.403 82.4859L323.424 82.4695L323.445 82.4522L322.492 81.2943ZM322.492 67.0812L321.538 68.2391L321.559 68.2563L321.581 68.2728L322.492 67.0812ZM291.15 64.5301V63.0301H289.65V64.5301H291.15ZM291.15 83.6632H289.65V85.1632H291.15V83.6632ZM291.15 152.5H254.342V155.5H291.15V152.5ZM255.842 154V32.4595H252.842V154H255.842ZM254.342 33.9595H319.212V30.9595H254.342V33.9595ZM319.212 33.9595C332.633 33.9595 342.892 37.8684 350.197 45.5217L352.368 43.4503C344.366 35.0682 333.245 30.9595 319.212 30.9595V33.9595ZM350.214 45.5384C357.69 53.1318 361.445 62.6443 361.445 74.1878H364.445C364.445 61.9213 360.424 51.6326 352.351 43.4336L350.214 45.5384ZM361.445 74.1878C361.445 85.6052 357.693 95.1242 350.206 102.845L352.359 104.934C360.422 96.6197 364.445 86.3374 364.445 74.1878H361.445ZM350.205 102.846C342.901 110.381 332.64 114.234 319.212 114.234V117.234C333.238 117.234 344.357 113.19 352.36 104.934L350.205 102.846ZM319.212 114.234H291.15V117.234H319.212V114.234ZM289.65 115.734V154H292.65V115.734H289.65ZM314.474 85.1632C317.996 85.1632 321.014 84.3125 323.403 82.4859L321.581 80.1028C319.839 81.4347 317.512 82.1632 314.474 82.1632V85.1632ZM323.445 82.4522C325.906 80.4259 327.09 77.6049 327.09 74.1878H324.09C324.09 76.8447 323.208 78.7613 321.538 80.1365L323.445 82.4522ZM327.09 74.1878C327.09 70.6741 325.92 67.8145 323.403 65.8897L321.581 68.2728C323.194 69.5064 324.09 71.3845 324.09 74.1878H327.09ZM323.445 65.9233C321.055 63.9548 318.021 63.0301 314.474 63.0301V66.0301C317.487 66.0301 319.798 66.8062 321.538 68.2391L323.445 65.9233ZM314.474 63.0301H291.15V66.0301H314.474V63.0301ZM289.65 64.5301V83.6632H292.65V64.5301H289.65ZM291.15 85.1632H314.474V82.1632H291.15V85.1632ZM484.995 154V155.5H487.147L486.402 153.481L484.995 154ZM443.266 154L441.833 154.441L442.159 155.5H443.266V154ZM438.893 139.787L440.327 139.346L440.001 138.287H438.893V139.787ZM395.16 139.787V138.287H394.053L393.727 139.346L395.16 139.787ZM390.787 154V155.5H391.895L392.221 154.441L390.787 154ZM349.059 154L347.652 153.481L346.907 155.5H349.059V154ZM393.885 32.4595V30.9595H392.839L392.478 31.9404L393.885 32.4595ZM440.169 32.4595L441.576 31.9404L441.214 30.9595H440.169V32.4595ZM429.053 107.716V109.216H431.083L430.487 107.276L429.053 107.716ZM417.027 68.539L418.461 68.0988L417.027 63.4276L415.593 68.0988L417.027 68.539ZM405 107.716L403.566 107.276L402.971 109.216H405V107.716ZM484.995 152.5H443.266V155.5H484.995V152.5ZM444.7 153.559L440.327 139.346L437.459 140.228L441.833 154.441L444.7 153.559ZM438.893 138.287H395.16V141.287H438.893V138.287ZM393.727 139.346L389.353 153.559L392.221 154.441L396.594 140.228L393.727 139.346ZM390.787 152.5H349.059V155.5H390.787V152.5ZM350.466 154.519L395.292 32.9785L392.478 31.9404L347.652 153.481L350.466 154.519ZM393.885 33.9595H440.169V30.9595H393.885V33.9595ZM438.761 32.9785L483.587 154.519L486.402 153.481L441.576 31.9404L438.761 32.9785ZM430.487 107.276L418.461 68.0988L415.593 68.9792L427.619 108.156L430.487 107.276ZM415.593 68.0988L403.566 107.276L406.434 108.156L418.461 68.9792L415.593 68.0988ZM405 109.216H429.053V106.216H405V109.216ZM526.898 154V155.5H527.712L528.155 154.818L526.898 154ZM491.548 154H490.048V155.5H491.548V154ZM491.548 32.4595V30.9595H490.048V32.4595H491.548ZM528.356 32.4595H529.856V30.9595H528.356V32.4595ZM528.356 97.3297H526.856V102.379L529.613 98.1487L528.356 97.3297ZM570.631 32.4595V30.9595H569.818L569.374 31.6405L570.631 32.4595ZM608.533 32.4595H610.033V30.9595H608.533V32.4595ZM608.533 154V155.5H610.033V154H608.533ZM571.724 154H570.224V155.5H571.724V154ZM571.724 85.121H573.224V80.0661L570.467 84.3028L571.724 85.121ZM581.928 12.0509L583.135 12.9421L583.979 11.7997L582.884 10.8948L581.928 12.0509ZM517.969 12.0509L517.021 10.8886L515.897 11.8055L516.776 12.9595L517.969 12.0509ZM531.818 0.753258L533.037 -0.120775L532.107 -1.41818L530.87 -0.40904L531.818 0.753258ZM568.262 0.753258L569.218 -0.402856L567.964 -1.43965L567.032 -0.105378L568.262 0.753258ZM526.898 152.5L491.548 152.5V155.5L526.898 155.5V152.5ZM493.048 154V32.4595H490.048V154H493.048ZM491.548 33.9595H528.356V30.9595H491.548V33.9595ZM526.856 32.4595V97.3297H529.856V32.4595H526.856ZM529.613 98.1487L571.888 33.2784L569.374 31.6405L527.099 96.5107L529.613 98.1487ZM570.631 33.9595H608.533V30.9595L570.631 30.9595V33.9595ZM607.033 32.4595V154H610.033V32.4595H607.033ZM608.533 152.5H571.724V155.5H608.533V152.5ZM573.224 154V85.121H570.224V154H573.224ZM570.467 84.3028L525.641 153.182L528.155 154.818L572.981 85.9391L570.467 84.3028ZM580.722 11.1597C573.11 21.4645 562.93 26.5862 550.04 26.5862V29.5862C563.876 29.5862 574.954 24.0176 583.135 12.9421L580.722 11.1597ZM550.04 26.5862C537.275 26.5862 527.023 21.4663 519.163 11.1422L516.776 12.9595C525.194 24.0159 536.322 29.5862 550.04 29.5862V26.5862ZM518.918 13.2132L532.766 1.91556L530.87 -0.40904L517.021 10.8886L518.918 13.2132ZM530.599 1.62729C535.48 8.43463 541.996 11.9109 550.04 11.9109V8.91089C543.021 8.91089 537.389 5.94873 533.037 -0.120775L530.599 1.62729ZM550.04 11.9109C558.198 11.9109 564.725 8.43976 569.492 1.61189L567.032 -0.105378C562.809 5.9436 557.188 8.91089 550.04 8.91089V11.9109ZM567.306 1.90937L580.973 13.207L582.884 10.8948L569.218 -0.402856L567.306 1.90937Z" fill="url(#paint0_linear_1_269)" fill-opacity="0.1" mask="url(#path-1-outside-1_1_269)"/>
<defs>
<linearGradient id="paint0_linear_1_269" x1="-127.837" y1="242.264" x2="31.3277" y2="834.345" gradientUnits="userSpaceOnUse">
<stop stop-color="#6F7FA8"/>
<stop offset="1" stop-color="#5D6B8F" stop-opacity="0"/>
</linearGradient>
</defs>
</svg>
