<svg width="830" height="127" viewBox="0 0 830 127" fill="none" xmlns="http://www.w3.org/2000/svg">
<mask id="path-1-outside-1_1_394" maskUnits="userSpaceOnUse" x="-2" y="-2" width="834" height="130" fill="black">
<rect fill="white" x="-2" y="-2" width="834" height="130"/>
<path d="M67.1546 126.187C47.9608 126.187 31.9862 120.356 19.2308 108.694C6.5969 96.91 0.279954 81.7858 0.279954 63.3209C0.279954 44.7344 6.5969 29.6102 19.2308 17.9482C31.8647 6.28609 47.8393 0.455061 67.1546 0.455061C81.7321 0.455061 93.4549 3.85649 102.323 10.6594C111.312 17.4622 117.994 25.8443 122.367 35.8057L90.6609 50.5655C89.0817 45.7063 86.1054 41.576 81.7322 38.1745C77.3589 34.6516 72.4997 32.8902 67.1546 32.8902C58.408 32.8902 51.3015 35.8057 45.8349 41.6367C40.3683 47.4677 37.635 54.6958 37.635 63.3209C37.635 71.9459 40.3683 79.174 45.8349 85.005C51.3015 90.836 58.408 93.7515 67.1546 93.7515C72.4997 93.7515 77.3589 92.0508 81.7322 88.6494C86.1054 85.1265 89.0817 80.9354 90.6609 76.0762L122.367 90.6538C120.423 95.1486 117.994 99.3396 115.078 103.227C112.163 106.993 108.518 110.698 104.145 114.342C99.7719 117.987 94.366 120.902 87.9276 123.089C81.6107 125.154 74.6863 126.187 67.1546 126.187ZM226.099 124H133.895V2.45947L226.099 2.45947V34.5301H170.704V46.5566H224.823V78.6273H170.704V91.9293H226.099V124ZM279.253 124H242.444V2.45947H307.314C321.042 2.45947 331.732 6.46831 339.385 14.486C347.16 22.3822 351.047 32.2828 351.047 44.1878C351.047 55.9713 347.16 65.8719 339.385 73.8896C331.732 81.7858 321.042 85.7339 307.314 85.7339H279.253V124ZM302.577 53.6632C305.857 53.6632 308.529 52.8736 310.594 51.2944C312.66 49.5936 313.692 47.2248 313.692 44.1878C313.692 41.0293 312.66 38.6605 310.594 37.0812C308.529 35.3805 305.857 34.5301 302.577 34.5301H279.253V53.6632H302.577ZM439.444 124H363.094V2.45947H436.892C448.555 2.45947 457.483 5.61795 463.679 11.9349C469.874 18.2519 472.972 25.4192 472.972 33.4368C472.972 40.8471 471.028 47.0426 467.141 52.0232C463.254 56.8824 458.273 59.9802 452.199 61.3164C458.88 62.2883 464.408 65.5682 468.781 71.1563C473.154 76.6229 475.341 83.2435 475.341 91.0182C475.341 100.129 472.243 107.904 466.048 114.342C459.852 120.781 450.984 124 439.444 124ZM428.328 47.2855C430.272 47.2855 431.973 46.6174 433.43 45.2811C434.888 43.8233 435.617 42.0619 435.617 39.9967C435.617 37.9316 434.888 36.2916 433.43 35.0768C431.973 33.7405 430.272 33.0724 428.328 33.0724H399.902V47.2855H428.328ZM429.421 93.3871C432.094 93.3871 434.159 92.719 435.617 91.3827C437.196 89.9249 437.986 88.042 437.986 85.7339C437.986 83.5472 437.196 81.725 435.617 80.2673C434.038 78.688 431.973 77.8984 429.421 77.8984H399.902V93.3871H429.421ZM582.352 124L490.149 124V2.45947L582.352 2.45947V34.5301H526.957V46.5566H581.077V78.6273H526.957V91.9293H582.352V124ZM635.506 124H598.698V2.45947H663.568C677.295 2.45947 687.986 6.46831 695.639 14.486C703.413 22.3822 707.301 32.2828 707.301 44.1878C707.301 55.9713 703.413 65.8719 695.639 73.8896C687.986 81.7858 677.295 85.7339 663.568 85.7339H635.506V124ZM658.83 53.6632C662.11 53.6632 664.783 52.8736 666.848 51.2944C668.913 49.5936 669.946 47.2248 669.946 44.1878C669.946 41.0293 668.913 38.6605 666.848 37.0812C664.783 35.3805 662.11 34.5301 658.83 34.5301L635.506 34.5301V53.6632H658.83ZM829.351 124H787.623L783.249 109.787H739.517L735.143 124H693.415L738.241 2.45947H784.525L829.351 124ZM773.41 77.7162L761.383 38.539L749.357 77.7162L773.41 77.7162Z"/>
</mask>
<path d="M19.2308 108.694L18.2077 109.79L18.2131 109.796L18.2186 109.801L19.2308 108.694ZM19.2308 17.9482L20.2482 19.0504L19.2308 17.9482ZM102.323 10.6594L101.41 11.8495L101.418 11.8555L102.323 10.6594ZM122.367 35.8057L123 37.1656L124.33 36.5463L123.741 35.2027L122.367 35.8057ZM90.6609 50.5655L89.2344 51.0291L89.758 52.6404L91.294 51.9253L90.6609 50.5655ZM81.7321 38.1745L80.7912 39.3427L80.8011 39.3507L80.8112 39.3586L81.7321 38.1745ZM45.8349 41.6367L44.7406 40.6108L45.8349 41.6367ZM45.8349 85.005L44.7406 86.0309L45.8349 85.005ZM81.7321 88.6494L82.6531 89.8334L82.6632 89.8255L82.6731 89.8175L81.7321 88.6494ZM90.6609 76.0762L91.2875 74.7134L89.7555 74.009L89.2344 75.6126L90.6609 76.0762ZM122.367 90.6538L123.744 91.2492L124.326 89.9034L122.994 89.2909L122.367 90.6538ZM115.078 103.227L116.264 104.145L116.271 104.136L116.278 104.127L115.078 103.227ZM104.145 114.342L103.185 113.19V113.19L104.145 114.342ZM87.9276 123.089L88.3937 124.515L88.4019 124.512L88.41 124.509L87.9276 123.089ZM67.1546 124.687C48.2906 124.687 32.6905 118.967 20.243 107.587L18.2186 109.801C31.2819 121.744 47.6309 127.687 67.1546 127.687V124.687ZM20.2539 107.597C7.94686 96.1179 1.77995 81.4019 1.77995 63.3209H-1.22005C-1.22005 82.1697 5.24695 97.7021 18.2077 109.79L20.2539 107.597ZM1.77995 63.3209C1.77995 45.1152 7.94875 30.4037 20.2482 19.0504L18.2134 16.8459C5.24505 28.8167 -1.22005 44.3537 -1.22005 63.3209H1.77995ZM20.2482 19.0504C32.5702 7.67619 48.1662 1.95506 67.1546 1.95506V-1.04494C47.5124 -1.04494 31.1592 4.89599 18.2134 16.8459L20.2482 19.0504ZM67.1546 1.95506C81.5028 1.95506 92.874 5.30133 101.41 11.8495L103.236 9.46922C94.0359 2.41165 81.9615 -1.04494 67.1546 -1.04494V1.95506ZM101.418 11.8555C110.211 18.5097 116.727 26.6904 120.994 36.4087L123.741 35.2027C119.261 24.9982 112.414 16.4148 103.228 9.46325L101.418 11.8555ZM121.734 34.4458L90.0279 49.2056L91.294 51.9253L123 37.1656L121.734 34.4458ZM92.0875 50.1018C90.4076 44.9332 87.2422 40.5598 82.6531 36.9905L80.8112 39.3586C84.9686 42.5921 87.7557 46.4794 89.2344 51.0291L92.0875 50.1018ZM82.6731 37.0064C78.0478 33.2805 72.8603 31.3902 67.1546 31.3902V34.3902C72.1391 34.3902 76.6699 36.0228 80.7912 39.3427L82.6731 37.0064ZM67.1546 31.3902C58.0369 31.3902 50.5191 34.447 44.7406 40.6108L46.9292 42.6626C52.0838 37.1644 58.7792 34.3902 67.1546 34.3902V31.3902ZM44.7406 40.6108C38.9916 46.743 36.135 54.3477 36.135 63.3209H39.135C39.135 55.0439 41.7449 48.1925 46.9292 42.6626L44.7406 40.6108ZM36.135 63.3209C36.135 72.294 38.9916 79.8987 44.7406 86.0309L46.9292 83.9791C41.7449 78.4492 39.135 71.5978 39.135 63.3209H36.135ZM44.7406 86.0309C50.5191 92.1947 58.0369 95.2515 67.1546 95.2515V92.2515C58.7792 92.2515 52.0838 89.4773 46.9292 83.9791L44.7406 86.0309ZM67.1546 95.2515C72.8461 95.2515 78.0268 93.4316 82.6531 89.8334L80.8112 87.4654C76.6909 90.6701 72.1532 92.2515 67.1546 92.2515V95.2515ZM82.6731 89.8175C87.2499 86.1307 90.4094 81.7033 92.0875 76.5399L89.2344 75.6126C87.754 80.1676 84.961 84.1222 80.7912 87.4813L82.6731 89.8175ZM90.0343 77.4391L121.741 92.0167L122.994 89.2909L91.2875 74.7134L90.0343 77.4391ZM120.99 90.0584C119.093 94.4459 116.723 98.5346 113.878 102.327L116.278 104.127C119.265 100.145 121.754 95.8512 123.744 91.2492L120.99 90.0584ZM113.892 102.309C111.055 105.974 107.49 109.602 103.185 113.19L105.105 115.495C109.547 111.794 113.271 108.012 116.264 104.145L113.892 102.309ZM103.185 113.19C98.9777 116.696 93.7424 119.53 87.4452 121.669L88.41 124.509C94.9897 122.275 100.566 119.277 105.105 115.495L103.185 113.19ZM87.4615 121.663C81.3136 123.673 74.5488 124.687 67.1546 124.687V127.687C74.8239 127.687 81.9077 126.635 88.3937 124.515L87.4615 121.663ZM226.099 124V125.5H227.599V124H226.099ZM133.895 124H132.395V125.5H133.895V124ZM133.895 2.45947V0.959473H132.395V2.45947H133.895ZM226.099 2.45947H227.599V0.959473H226.099V2.45947ZM226.099 34.5301V36.0301H227.599V34.5301H226.099ZM170.704 34.5301V33.0301H169.204V34.5301H170.704ZM170.704 46.5566H169.204V48.0566H170.704V46.5566ZM224.823 46.5566H226.323V45.0566H224.823V46.5566ZM224.823 78.6273V80.1273H226.323V78.6273H224.823ZM170.704 78.6273V77.1273H169.204V78.6273H170.704ZM170.704 91.9293H169.204V93.4293H170.704V91.9293ZM226.099 91.9293H227.599V90.4293H226.099V91.9293ZM226.099 122.5H133.895V125.5H226.099V122.5ZM135.395 124V2.45947H132.395V124H135.395ZM133.895 3.95947L226.099 3.95947V0.959473L133.895 0.959473V3.95947ZM224.599 2.45947V34.5301H227.599V2.45947H224.599ZM226.099 33.0301H170.704V36.0301H226.099V33.0301ZM169.204 34.5301V46.5566H172.204V34.5301H169.204ZM170.704 48.0566H224.823V45.0566H170.704V48.0566ZM223.323 46.5566V78.6273H226.323V46.5566H223.323ZM224.823 77.1273H170.704V80.1273H224.823V77.1273ZM169.204 78.6273V91.9293H172.204V78.6273H169.204ZM170.704 93.4293H226.099V90.4293H170.704V93.4293ZM224.599 91.9293V124H227.599V91.9293H224.599ZM279.253 124V125.5H280.753V124H279.253ZM242.444 124H240.944V125.5H242.444V124ZM242.444 2.45947V0.959473H240.944V2.45947H242.444ZM339.385 14.486L338.3 15.5217L338.308 15.5301L338.316 15.5384L339.385 14.486ZM339.385 73.8896L338.308 72.8454L338.308 72.8456L339.385 73.8896ZM279.253 85.7339V84.2339H277.753V85.7339H279.253ZM310.594 51.2943L311.506 52.4859L311.527 52.4695L311.548 52.4522L310.594 51.2943ZM310.594 37.0812L309.641 38.2391L309.662 38.2563L309.683 38.2728L310.594 37.0812ZM279.253 34.5301V33.0301H277.753V34.5301H279.253ZM279.253 53.6632H277.753V55.1632H279.253V53.6632ZM279.253 122.5H242.444V125.5H279.253V122.5ZM243.944 124V2.45947H240.944V124H243.944ZM242.444 3.95947H307.314V0.959473H242.444V3.95947ZM307.314 3.95947C320.736 3.95947 330.995 7.86839 338.3 15.5217L340.47 13.4503C332.469 5.06823 321.347 0.959473 307.314 0.959473V3.95947ZM338.316 15.5384C345.793 23.1318 349.547 32.6443 349.547 44.1878H352.547C352.547 31.9213 348.527 21.6326 340.454 13.4336L338.316 15.5384ZM349.547 44.1878C349.547 55.6052 345.795 65.1242 338.308 72.8454L340.462 74.9338C348.524 66.6197 352.547 56.3374 352.547 44.1878H349.547ZM338.308 72.8456C331.004 80.3815 320.743 84.2339 307.314 84.2339V87.2339C321.341 87.2339 332.46 83.1901 340.462 74.9335L338.308 72.8456ZM307.314 84.2339H279.253V87.2339H307.314V84.2339ZM277.753 85.7339V124H280.753V85.7339H277.753ZM302.577 55.1632C306.099 55.1632 309.117 54.3125 311.506 52.4859L309.683 50.1028C307.941 51.4347 305.615 52.1632 302.577 52.1632V55.1632ZM311.548 52.4522C314.008 50.4259 315.192 47.6049 315.192 44.1878H312.192C312.192 46.8447 311.311 48.7613 309.641 50.1365L311.548 52.4522ZM315.192 44.1878C315.192 40.6741 314.023 37.8145 311.506 35.8897L309.683 38.2728C311.296 39.5064 312.192 41.3845 312.192 44.1878H315.192ZM311.548 35.9233C309.158 33.9548 306.123 33.0301 302.577 33.0301V36.0301C305.59 36.0301 307.901 36.8062 309.641 38.2391L311.548 35.9233ZM302.577 33.0301H279.253V36.0301H302.577V33.0301ZM277.753 34.5301V53.6632H280.753V34.5301H277.753ZM279.253 55.1632H302.577V52.1632H279.253V55.1632ZM363.094 124H361.594V125.5H363.094V124ZM363.094 2.45947V0.959473H361.594V2.45947H363.094ZM463.679 11.9349L462.608 12.9852L463.679 11.9349ZM467.141 52.0232L468.312 52.9603L468.318 52.9532L468.323 52.9461L467.141 52.0232ZM452.199 61.3164L451.877 59.8515L451.983 62.8008L452.199 61.3164ZM468.781 71.1563L467.6 72.0808L467.605 72.0871L467.61 72.0933L468.781 71.1563ZM433.43 45.2811L434.444 46.3868L434.468 46.3648L434.491 46.3418L433.43 45.2811ZM433.43 35.0768L432.417 36.1825L432.443 36.2065L432.47 36.2291L433.43 35.0768ZM399.902 33.0724V31.5724H398.402V33.0724H399.902ZM399.902 47.2855H398.402V48.7855H399.902V47.2855ZM435.617 91.3827L436.631 92.4884L436.634 92.4849L435.617 91.3827ZM435.617 80.2673L434.556 81.3279L434.578 81.3491L434.6 81.3695L435.617 80.2673ZM399.902 77.8984V76.3984H398.402V77.8984H399.902ZM399.902 93.3871H398.402V94.8871H399.902V93.3871ZM439.444 122.5H363.094V125.5H439.444V122.5ZM364.594 124V2.45947H361.594V124H364.594ZM363.094 3.95947H436.892V0.959473H363.094V3.95947ZM436.892 3.95947C448.285 3.95947 456.776 7.03886 462.608 12.9852L464.75 10.8846C458.191 4.19704 448.824 0.959473 436.892 0.959473V3.95947ZM462.608 12.9852C468.559 19.0535 471.472 25.8543 471.472 33.4368H474.472C474.472 24.984 471.189 17.4502 464.75 10.8846L462.608 12.9852ZM471.472 33.4368C471.472 40.5728 469.606 46.4271 465.958 51.1003L468.323 52.9461C472.451 47.658 474.472 41.1214 474.472 33.4368H471.472ZM465.97 51.0862C462.296 55.6777 457.615 58.5889 451.877 59.8515L452.521 62.7814C458.93 61.3714 464.211 58.0872 468.312 52.9603L465.97 51.0862ZM451.983 62.8008C458.262 63.7141 463.451 66.7794 467.6 72.0808L469.962 70.2318C465.365 64.357 459.499 60.8625 452.415 59.8321L451.983 62.8008ZM467.61 72.0933C471.746 77.2643 473.841 83.5442 473.841 91.0182H476.841C476.841 82.9429 474.562 75.9814 469.952 70.2193L467.61 72.0933ZM473.841 91.0182C473.841 99.7499 470.887 107.149 464.967 113.302L467.129 115.382C473.599 108.658 476.841 100.509 476.841 91.0182H473.841ZM464.967 113.302C459.13 119.368 450.701 122.5 439.444 122.5V125.5C451.267 125.5 460.574 122.194 467.129 115.382L464.967 113.302ZM428.328 48.7855C430.654 48.7855 432.715 47.9718 434.444 46.3868L432.417 44.1754C431.23 45.2629 429.889 45.7855 428.328 45.7855V48.7855ZM434.491 46.3418C436.231 44.6021 437.117 42.4589 437.117 39.9967H434.117C434.117 41.6648 433.546 43.0445 432.37 44.2204L434.491 46.3418ZM437.117 39.9967C437.117 37.5311 436.223 35.4517 434.391 33.9245L432.47 36.2291C433.553 37.1315 434.117 38.3321 434.117 39.9967H437.117ZM434.444 33.9711C432.715 32.3861 430.654 31.5724 428.328 31.5724V34.5724C429.889 34.5724 431.23 35.095 432.417 36.1825L434.444 33.9711ZM428.328 31.5724H399.902V34.5724H428.328V31.5724ZM398.402 33.0724V47.2855H401.402V33.0724H398.402ZM399.902 48.7855H428.328V45.7855H399.902V48.7855ZM429.421 94.8871C432.335 94.8871 434.811 94.1562 436.631 92.4884L434.603 90.2769C433.507 91.2818 431.853 91.8871 429.421 91.8871V94.8871ZM436.634 92.4849C438.546 90.7205 439.486 88.4259 439.486 85.7339H436.486C436.486 87.658 435.847 89.1294 434.6 90.2805L436.634 92.4849ZM439.486 85.7339C439.486 83.1369 438.527 80.9124 436.634 79.1651L434.6 81.3695C435.865 82.5377 436.486 83.9576 436.486 85.7339H439.486ZM436.678 79.2066C434.776 77.3054 432.309 76.3984 429.421 76.3984V79.3984C431.636 79.3984 433.299 80.0707 434.556 81.3279L436.678 79.2066ZM429.421 76.3984H399.902V79.3984H429.421V76.3984ZM398.402 77.8984V93.3871H401.402V77.8984H398.402ZM399.902 94.8871H429.421V91.8871H399.902V94.8871ZM582.352 124V125.5H583.852V124H582.352ZM490.149 124H488.649V125.5H490.149V124ZM490.149 2.45947V0.959473H488.649V2.45947H490.149ZM582.352 2.45947H583.852V0.959473H582.352V2.45947ZM582.352 34.5301V36.0301H583.852V34.5301H582.352ZM526.957 34.5301V33.0301H525.457V34.5301H526.957ZM526.957 46.5566H525.457V48.0566H526.957V46.5566ZM581.077 46.5566H582.577V45.0566H581.077V46.5566ZM581.077 78.6273V80.1273H582.577V78.6273H581.077ZM526.957 78.6273V77.1273H525.457V78.6273H526.957ZM526.957 91.9293H525.457V93.4293H526.957V91.9293ZM582.352 91.9293H583.852V90.4293H582.352V91.9293ZM582.352 122.5L490.149 122.5V125.5L582.352 125.5V122.5ZM491.649 124V2.45947H488.649V124H491.649ZM490.149 3.95947L582.352 3.95947V0.959473L490.149 0.959473V3.95947ZM580.852 2.45947V34.5301H583.852V2.45947H580.852ZM582.352 33.0301H526.957V36.0301H582.352V33.0301ZM525.457 34.5301V46.5566H528.457V34.5301H525.457ZM526.957 48.0566H581.077V45.0566H526.957V48.0566ZM579.577 46.5566V78.6273H582.577V46.5566H579.577ZM581.077 77.1273H526.957V80.1273H581.077V77.1273ZM525.457 78.6273V91.9293H528.457V78.6273H525.457ZM526.957 93.4293H582.352V90.4293H526.957V93.4293ZM580.852 91.9293V124H583.852V91.9293H580.852ZM635.506 124V125.5H637.006V124H635.506ZM598.698 124H597.198V125.5H598.698V124ZM598.698 2.45947V0.959473H597.198V2.45947H598.698ZM695.639 14.486L694.554 15.5217L694.562 15.5301L694.57 15.5384L695.639 14.486ZM695.639 73.8896L694.562 72.8454L694.562 72.8456L695.639 73.8896ZM635.506 85.7339V84.2339H634.006V85.7339H635.506ZM666.848 51.2943L667.759 52.4859L667.781 52.4695L667.802 52.4522L666.848 51.2943ZM666.848 37.0812L665.894 38.2391L665.915 38.2563L665.937 38.2728L666.848 37.0812ZM635.506 34.5301V33.0301H634.006V34.5301H635.506ZM635.506 53.6632H634.006V55.1632H635.506V53.6632ZM635.506 122.5H598.698V125.5H635.506V122.5ZM600.198 124V2.45947H597.198V124H600.198ZM598.698 3.95947H663.568V0.959473H598.698V3.95947ZM663.568 3.95947C676.99 3.95947 687.248 7.86839 694.554 15.5217L696.724 13.4503C688.723 5.06823 677.601 0.959473 663.568 0.959473V3.95947ZM694.57 15.5384C702.046 23.1318 705.801 32.6443 705.801 44.1878H708.801C708.801 31.9213 704.78 21.6326 696.708 13.4336L694.57 15.5384ZM705.801 44.1878C705.801 55.6052 702.049 65.1242 694.562 72.8454L696.716 74.9338C704.778 66.6197 708.801 56.3374 708.801 44.1878H705.801ZM694.562 72.8456C687.258 80.3815 676.996 84.2339 663.568 84.2339V87.2339C677.594 87.2339 688.713 83.1901 696.716 74.9335L694.562 72.8456ZM663.568 84.2339H635.506V87.2339H663.568V84.2339ZM634.006 85.7339V124H637.006V85.7339H634.006ZM658.83 55.1632C662.352 55.1632 665.371 54.3125 667.759 52.4859L665.937 50.1028C664.195 51.4347 661.868 52.1632 658.83 52.1632V55.1632ZM667.802 52.4522C670.262 50.4259 671.446 47.6049 671.446 44.1878H668.446C668.446 46.8447 667.564 48.7613 665.894 50.1365L667.802 52.4522ZM671.446 44.1878C671.446 40.6741 670.276 37.8145 667.759 35.8897L665.937 38.2728C667.55 39.5064 668.446 41.3845 668.446 44.1878H671.446ZM667.802 35.9233C665.411 33.9548 662.377 33.0301 658.83 33.0301V36.0301C661.844 36.0301 664.155 36.8062 665.894 38.2391L667.802 35.9233ZM658.83 33.0301L635.506 33.0301V36.0301L658.83 36.0301V33.0301ZM634.006 34.5301V53.6632H637.006V34.5301L634.006 34.5301ZM635.506 55.1632H658.83V52.1632H635.506V55.1632ZM829.351 124V125.5H831.503L830.758 123.481L829.351 124ZM787.623 124L786.189 124.441L786.515 125.5H787.623V124ZM783.249 109.787L784.683 109.346L784.357 108.287H783.249V109.787ZM739.517 109.787V108.287H738.409L738.083 109.346L739.517 109.787ZM735.143 124V125.5H736.251L736.577 124.441L735.143 124ZM693.415 124L692.008 123.481L691.263 125.5H693.415V124ZM738.241 2.45947V0.959473H737.196L736.834 1.94043L738.241 2.45947ZM784.525 2.45947L785.932 1.94043L785.57 0.959473H784.525V2.45947ZM773.41 77.7162V79.2162H775.439L774.844 77.276L773.41 77.7162ZM761.383 38.539L762.817 38.0988L761.383 33.4276L759.949 38.0988L761.383 38.539ZM749.357 77.7162L747.923 77.276L747.327 79.2162H749.357V77.7162ZM829.351 122.5H787.623V125.5H829.351V122.5ZM789.056 123.559L784.683 109.346L781.816 110.228L786.189 124.441L789.056 123.559ZM783.249 108.287H739.517V111.287H783.249V108.287ZM738.083 109.346L733.71 123.559L736.577 124.441L740.95 110.228L738.083 109.346ZM735.143 122.5H693.415V125.5H735.143V122.5ZM694.822 124.519L739.648 2.97852L736.834 1.94043L692.008 123.481L694.822 124.519ZM738.241 3.95947H784.525V0.959473H738.241V3.95947ZM783.118 2.97852L827.944 124.519L830.758 123.481L785.932 1.94043L783.118 2.97852ZM774.844 77.276L762.817 38.0988L759.949 38.9792L771.976 78.1564L774.844 77.276ZM759.949 38.0988L747.923 77.276L750.791 78.1564L762.817 38.9792L759.949 38.0988ZM749.357 79.2162L773.41 79.2162V76.2162L749.357 76.2162V79.2162Z" fill="url(#paint0_linear_1_394)" fill-opacity="0.1" mask="url(#path-1-outside-1_1_394)"/>
<defs>
<linearGradient id="paint0_linear_1_394" x1="-174.413" y1="212.264" x2="-52.0508" y2="822.6" gradientUnits="userSpaceOnUse">
<stop stop-color="#6F7FA8"/>
<stop offset="1" stop-color="#5D6B8F" stop-opacity="0"/>
</linearGradient>
</defs>
</svg>
