<svg width="65" height="64" viewBox="0 0 65 64" fill="none" xmlns="http://www.w3.org/2000/svg">
<rect x="0.5" width="64" height="64" rx="8" fill="url(#paint0_linear_1_570)"/>
<path d="M31.4375 22H34.5625C35.082 22 35.5 22.418 35.5 22.9375V29.5H38.9258C39.6211 29.5 39.9688 30.3398 39.4766 30.832L33.5352 36.7773C33.2422 37.0703 32.7617 37.0703 32.4688 36.7773L26.5195 30.832C26.0273 30.3398 26.375 29.5 27.0703 29.5H30.5V22.9375C30.5 22.418 30.918 22 31.4375 22ZM43 36.6875V41.0625C43 41.582 42.582 42 42.0625 42H23.9375C23.418 42 23 41.582 23 41.0625V36.6875C23 36.168 23.418 35.75 23.9375 35.75H29.668L31.582 37.6641C32.3672 38.4492 33.6328 38.4492 34.418 37.6641L36.332 35.75H42.0625C42.582 35.75 43 36.168 43 36.6875ZM38.1562 40.125C38.1562 39.6953 37.8047 39.3438 37.375 39.3438C36.9453 39.3438 36.5938 39.6953 36.5938 40.125C36.5938 40.5547 36.9453 40.9062 37.375 40.9062C37.8047 40.9062 38.1562 40.5547 38.1562 40.125ZM40.6562 40.125C40.6562 39.6953 40.3047 39.3438 39.875 39.3438C39.4453 39.3438 39.0938 39.6953 39.0938 40.125C39.0938 40.5547 39.4453 40.9062 39.875 40.9062C40.3047 40.9062 40.6562 40.5547 40.6562 40.125Z" fill="white"/>
<defs>
<linearGradient id="paint0_linear_1_570" x1="0.5" y1="31.5075" x2="282.5" y2="31.5076" gradientUnits="userSpaceOnUse">
<stop stop-color="#1270FE"/>
<stop offset="1" stop-opacity="0"/>
</linearGradient>
</defs>
</svg>
