<svg width="65" height="65" viewBox="0 0 65 65" fill="none" xmlns="http://www.w3.org/2000/svg">
<rect x="0.5" y="0.5" width="64" height="64" rx="8" fill="url(#paint0_linear_1_584)"/>
<path d="M30.3961 40.9329C29.8098 41.5216 28.8568 41.5216 28.2705 40.9329L23.0543 35.6956C22.4713 35.1103 22.4713 34.1639 23.0543 33.5786L24.1968 32.4315C24.7836 31.8422 25.7378 31.8429 26.3239 32.433L28.27 34.3925C28.8562 34.9828 29.8109 34.9832 30.3976 34.3935L39.6761 25.0682C40.2623 24.479 41.2158 24.4788 41.8023 25.0676L42.9457 26.2157C43.5287 26.801 43.5287 27.7474 42.9457 28.3327L30.3961 40.9329Z" fill="white"/>
<defs>
<linearGradient id="paint0_linear_1_584" x1="0.5" y1="32.0078" x2="241.5" y2="32.0079" gradientUnits="userSpaceOnUse">
<stop stop-color="#3DFF78"/>
<stop offset="1" stop-opacity="0"/>
</linearGradient>
</defs>
</svg>
