<svg width="198" height="12" viewBox="0 0 198 12" fill="none" xmlns="http://www.w3.org/2000/svg">
<path d="M192 12C188.686 12 186 9.31371 186 6C186 2.68629 188.686 -4.07115e-07 192 -2.62268e-07C195.314 -1.17422e-07 198 2.68629 198 6C198 9.31371 195.314 12 192 12ZM192 2.1C189.846 2.1 188.1 3.84609 188.1 6C188.1 8.15391 189.846 9.9 192 9.9C194.154 9.9 195.9 8.15391 195.9 6C195.9 3.84609 194.154 2.1 192 2.1Z" fill="white" fill-opacity="0.5"/>
<line x1="177.5" y1="6.5" x2="20.5" y2="6.49999" stroke="white" stroke-opacity="0.4" stroke-linecap="round" stroke-dasharray="5 5"/>
<path d="M6 12C2.68629 12 -4.07115e-07 9.31371 -2.62268e-07 6C-1.17422e-07 2.68629 2.68629 -4.07115e-07 6 -2.62268e-07C9.31371 -1.17422e-07 12 2.68629 12 6C12 9.31371 9.31371 12 6 12ZM6 2.1C3.84609 2.1 2.1 3.84609 2.1 6C2.1 8.15391 3.84609 9.9 6 9.9C8.15391 9.9 9.9 8.15391 9.9 6C9.9 3.84609 8.15391 2.1 6 2.1Z" fill="white" fill-opacity="0.5"/>
</svg>
