<svg width="15" height="14" viewBox="0 0 15 14" fill="none" xmlns="http://www.w3.org/2000/svg">
<path d="M10.1536 7L14.1337 3.01994C14.6221 2.53153 14.6221 1.73966 14.1337 1.25085L13.2491 0.366307C12.7607 -0.122102 11.9689 -0.122102 11.4801 0.366307L7.5 4.34636L3.51994 0.366307C3.03153 -0.122102 2.23966 -0.122102 1.75085 0.366307L0.866307 1.25085C0.377898 1.73926 0.377898 2.53114 0.866307 3.01994L4.84636 7L0.866307 10.9801C0.377898 11.4685 0.377898 12.2603 0.866307 12.7491L1.75085 13.6337C2.23926 14.1221 3.03153 14.1221 3.51994 13.6337L7.5 9.65364L11.4801 13.6337C11.9685 14.1221 12.7607 14.1221 13.2491 13.6337L14.1337 12.7491C14.6221 12.2607 14.6221 11.4689 14.1337 10.9801L10.1536 7Z" fill="url(#paint0_linear_0_1837)"/>
<defs>
<linearGradient id="paint0_linear_0_1837" x1="0.5" y1="6.89232" x2="14.5" y2="6.89232" gradientUnits="userSpaceOnUse">
<stop stop-color="#667292"/>
<stop offset="1" stop-color="#6B7898"/>
</linearGradient>
</defs>
</svg>
