<svg width="16" height="16" viewBox="0 0 16 16" fill="none" xmlns="http://www.w3.org/2000/svg">
<path d="M16 0C14.3819 0.111251 3.01362 1.19376 2.21893 8.98786C2.12236 9.82098 2.06768 10.6579 2.03174 11.4954L7.62148 5.91128C7.81679 5.71597 8.13399 5.71597 8.3293 5.91128C8.52461 6.10659 8.52461 6.42316 8.3293 6.61847L0.219846 14.7198C-0.073282 15.0126 -0.073282 15.4876 0.219846 15.7804C0.512974 16.0732 0.988291 16.0732 1.28173 15.7804L3.06706 13.9969C4.38239 13.9926 5.69677 13.9179 7.00335 13.7669C8.67462 13.5969 10.0353 12.9398 11.1465 12.0001H7.9918L12.579 10.4726C12.9306 10.0072 13.2468 9.51286 13.5306 9.00004H10.995L14.3244 7.33722C15.6341 4.1519 15.9434 0.820629 16 0Z" fill="url(#paint0_linear_0_1833)"/>
<defs>
<linearGradient id="paint0_linear_0_1833" x1="0" y1="8" x2="16" y2="8" gradientUnits="userSpaceOnUse">
<stop stop-color="#FF43BF"/>
<stop offset="1" stop-color="#FF005D"/>
</linearGradient>
</defs>
</svg>
