<svg width="27" height="34" viewBox="0 0 27 34" fill="none" xmlns="http://www.w3.org/2000/svg">
<path d="M26.5723 0.201971L26.2612 0.430767H13.3571H0.453016L0.242524 0.229426C0.12355 0.119604 0.0228796 0.0463896 0.0137277 0.0738451C-0.00457592 0.0921487 -0.00457592 7.69732 0.0137277 16.9773L0.0320314 33.835L3.94902 33.8167L7.85685 33.7892L7.8843 21.0407L7.90261 8.30134H15.9928H24.083L24.321 7.63326C24.9342 5.91272 26.9293 0.0280859 26.911 0.000630406C26.8927 -0.00852143 26.7371 0.0738451 26.5723 0.201971Z" fill="white"/>
<path d="M10.5566 17.6822V24.5918H13.0734H15.5901V20.4277V16.2636H20.404C24.9433 16.2636 25.2087 16.2545 25.163 16.0989C25.1355 16.0165 24.9067 14.8268 24.6505 13.4723C24.1105 10.5895 24.2386 10.8823 23.9732 10.8823C23.9179 10.8823 24.1471 11.0471 17.4022 11.0471C11.7738 11.0471 10.8403 11.0288 10.7397 10.9098C10.6482 10.9556 10.6848 10.9556 10.639 10.9556C10.5932 10.9556 10.5566 13.7835 10.5566 17.6822Z" fill="white"/>
<path d="M10.5566 30.2932V33.835H18.7567C25.4741 33.835 26.9476 33.8167 26.911 33.716C26.8835 33.6519 26.4076 32.1785 25.8402 30.4396C24.5589 26.5318 24.6596 26.788 24.5498 26.9894C24.4674 27.145 24.0464 27.1541 17.7225 27.1541H10.9776L10.7671 26.9528L10.5566 26.7606V30.2932Z" fill="white"/>
</svg>
